<svg width="32" height="32" viewBox="0 0 32 32" fill="none" xmlns="http://www.w3.org/2000/svg">
<path d="M1 25.0004V7.00037C1 4.90017 1 3.84929 1.40873 3.04712C1.76825 2.34151 2.34151 1.76825 3.04712 1.40873C3.84929 1 4.90017 1 7.00037 1H8.5H25.0004C27.1006 1 28.1492 1 28.9514 1.40873C29.657 1.76825 30.2321 2.34151 30.5917 3.04712C31 3.8485 31 4.89811 31 6.99421V25.0067C31 27.1028 31 28.1509 30.5917 28.9523C30.2321 29.6579 29.657 30.2321 28.9514 30.5917C28.15 31 27.1019 31 25.0058 31H8.5H6.99421C4.89811 31 3.8485 31 3.04712 30.5917C2.34151 30.2321 1.76825 29.6579 1.40873 28.9523C1 28.1501 1 27.1006 1 25.0004Z" fill="#FF5C28"/>
<path d="M8.5 1H7.00037C4.90017 1 3.84929 1 3.04712 1.40873C2.34151 1.76825 1.76825 2.34151 1.40873 3.04712C1 3.84929 1 4.90017 1 7.00037V25.0004C1 27.1006 1 28.1501 1.40873 28.9523C1.76825 29.6579 2.34151 30.2321 3.04712 30.5917C3.8485 31 4.89811 31 6.99421 31H8.5M8.5 1H25.0004C27.1006 1 28.1492 1 28.9514 1.40873C29.657 1.76825 30.2321 2.34151 30.5917 3.04712C31 3.8485 31 4.89811 31 6.99421V25.0067C31 27.1028 31 28.1509 30.5917 28.9523C30.2321 29.6579 29.657 30.2321 28.9514 30.5917C28.15 31 27.1019 31 25.0058 31H8.5M8.5 1V31M16 14.125H23.5M16 8.5H23.5" stroke="white" stroke-width="2" stroke-linecap="round" stroke-linejoin="round"/>
</svg>
