<svg width="28" height="28" viewBox="0 0 28 28" fill="none" xmlns="http://www.w3.org/2000/svg">
<path d="M7.5 1H6.20032C4.38015 1 3.46938 1 2.77417 1.35423C2.16264 1.66582 1.66582 2.16264 1.35423 2.77417C1 3.46938 1 4.38015 1 6.20032V21.8003C1 23.6205 1 24.5301 1.35423 25.2253C1.66582 25.8368 2.16264 26.3345 2.77417 26.6461C3.4687 27 4.37837 27 6.19498 27H7.5M7.5 1H21.8003C23.6205 1 24.5293 1 25.2245 1.35423C25.836 1.66582 26.3345 2.16264 26.6461 2.77417C27 3.4687 27 4.37837 27 6.19498V21.8058C27 23.6224 27 24.5308 26.6461 25.2253C26.3345 25.8368 25.836 26.3345 25.2245 26.6461C24.53 27 23.6216 27 21.805 27H7.5M7.5 1V27M14 12.375H20.5M14 7.5H20.5" stroke="black" stroke-width="2" stroke-linecap="round" stroke-linejoin="round"/>
</svg>
