<svg width="31" height="32" viewBox="0 0 31 32" fill="none" xmlns="http://www.w3.org/2000/svg">
<path d="M31 25.851V15.1019C31 14.0666 30.9991 13.5487 30.8732 13.0669C30.7617 12.64 30.5786 12.236 30.3307 11.8709C30.0511 11.459 29.6623 11.1173 28.8831 10.4356L19.5831 2.29809C18.1366 1.03235 17.4133 0.399801 16.5993 0.159082C15.8821 -0.0530272 15.1176 -0.0530272 14.4003 0.159082C13.5869 0.399619 12.8647 1.03157 11.4203 2.2954L2.11725 10.4356C1.33812 11.1173 0.949455 11.459 0.6698 11.8709C0.421972 12.236 0.237437 12.64 0.125882 13.0669C0 13.5487 0 14.0666 0 15.1019V25.851C0 27.6565 0 28.5589 0.294967 29.271C0.688256 30.2205 1.44212 30.9758 2.3916 31.3691C3.10371 31.6641 4.00648 31.6641 5.812 31.6641C7.61752 31.6641 8.52129 31.6641 9.2334 31.3691C10.1829 30.9758 10.9365 30.2207 11.3298 29.2712C11.6248 28.5591 11.625 27.6563 11.625 25.8508V23.9133C11.625 21.7732 13.3599 20.0383 15.5 20.0383C17.6401 20.0383 19.375 21.7732 19.375 23.9133V25.8508C19.375 27.6563 19.375 28.5591 19.67 29.2712C20.0633 30.2207 20.8171 30.9758 21.7666 31.3691C22.4787 31.6641 23.3815 31.6641 25.187 31.6641C26.9925 31.6641 27.8963 31.6641 28.6084 31.3691C29.5579 30.9758 30.3115 30.2205 30.7048 29.271C30.9998 28.5589 31 27.6565 31 25.851Z" fill="#FF5C28"/>
</svg>
