<svg width="28" height="29" viewBox="0 0 28 29" fill="none" xmlns="http://www.w3.org/2000/svg">
<path d="M27 22.6815V13.6661C27 12.7978 26.9993 12.3634 26.8937 11.9594C26.8001 11.6013 26.6465 11.2625 26.4387 10.9563C26.2041 10.6107 25.878 10.3242 25.2246 9.75243L17.4246 2.92743C16.2113 1.86584 15.6047 1.33532 14.922 1.13342C14.3204 0.955526 13.6792 0.955526 13.0777 1.13342C12.3955 1.33516 11.7898 1.86519 10.5783 2.92517L2.77576 9.75243C2.12229 10.3242 1.79632 10.6107 1.56177 10.9563C1.35391 11.2625 1.19914 11.6013 1.10558 11.9594C1 12.3634 1 12.7978 1 13.6661V22.6815C1 24.1958 1 24.9527 1.24739 25.5499C1.57725 26.3463 2.20952 26.9797 3.00586 27.3096C3.60312 27.557 4.36027 27.557 5.87458 27.557C7.38889 27.557 8.14688 27.557 8.74414 27.3096C9.54048 26.9797 10.1726 26.3464 10.5024 25.5501C10.7498 24.9528 10.75 24.1956 10.75 22.6813V21.0563C10.75 19.2614 12.2051 17.8063 14 17.8063C15.7949 17.8063 17.25 19.2614 17.25 21.0563V22.6813C17.25 24.1956 17.25 24.9528 17.4974 25.5501C17.8272 26.3464 18.4595 26.9797 19.2559 27.3096C19.8531 27.557 20.6103 27.557 22.1246 27.557C23.6389 27.557 24.3969 27.557 24.9941 27.3096C25.7905 26.9797 26.4226 26.3462 26.7524 25.5499C26.9998 24.9527 27 24.1958 27 22.6815Z" stroke="black" stroke-width="2" stroke-linecap="round" stroke-linejoin="round"/>
</svg>
