<svg width="26" height="25" viewBox="0 0 26 25" fill="none" xmlns="http://www.w3.org/2000/svg">
<path d="M25.1768 11.7184C25.425 12.4958 25.4751 13.3203 25.371 14.1293C24.5809 20.2633 19.4081 25 13.1422 25C9.29744 25 5.86428 23.216 3.60274 20.4207C4.18084 20.2802 5.55364 19.8765 7.01432 18.9401C6.66129 19.0914 4.95396 19.6735 3.03851 19.6673C2.02722 19.6642 0.95888 19.4975 0 19.0173C0.857905 19.1601 1.7636 19.1833 2.68009 19.1192C7.20548 18.8066 12.013 16.405 12.7183 16.0839C14.1057 15.3119 13.7203 17.7822 18.3451 16.6242C20.118 16.0839 21.8908 14.6943 21.4284 12.7644C20.9659 10.8345 18.9618 10.5258 16.5553 11.1935C14.1489 11.862 13.7589 13.3542 13.1422 13.9502C10.8691 15.9079 7.0174 15.7751 7.01432 15.7751C5.52204 15.7234 4.06214 15.5342 2.83271 14.6032C-0.608936 11.9956 1.47147 7.15924 3.68059 4.47437C6.44778 1.11017 10.9948 -0.575021 15.2827 0.176868C17.969 0.647763 20.4502 2.05505 22.2701 4.08453C21.3713 4.29218 19.7426 4.76076 18.9618 5.43082C20.2768 5.05411 21.5848 4.7515 22.7742 4.6828C24.0252 4.611 25.1436 4.79782 26 5.43082C25.0303 5.27103 24.1478 5.22625 23.2297 5.29728C21.0676 5.46556 18.7144 6.27844 14.5798 7.76446C14.3169 7.85864 14.0479 7.57533 13.8699 7.4248C13.6409 7.23181 13.4035 7.08899 13.1114 7.01334C11.9906 6.72308 10.7026 6.98709 9.61732 7.30514C8.53203 7.62319 7.39895 8.11338 6.28976 8.51712L5.576 8.77727C5.38098 8.84829 5.27924 9.06367 5.34861 9.26052L5.38561 9.3655C5.45575 9.5639 5.67466 9.66734 5.87199 9.59555L10.4467 7.92966C10.6425 7.85864 10.8591 7.95899 10.9315 8.15507C11.004 8.35192 10.903 8.57115 10.7057 8.64295L6.1171 10.3142C5.92209 10.3853 5.82034 10.6006 5.88972 10.7967L5.91361 10.8646C5.98375 11.0638 6.20266 11.1673 6.39999 11.0947L10.9948 9.42108C11.1905 9.34929 11.4079 9.45042 11.4796 9.64649L11.5073 9.72137C11.5798 9.91822 11.4788 10.1367 11.2815 10.2085L6.67208 11.8867C6.47707 11.9577 6.37532 12.1731 6.44469 12.3692L6.47553 12.4557C6.54567 12.6548 6.76458 12.7575 6.9619 12.6857L11.5775 11.0051C11.7733 10.9341 11.9906 11.0345 12.0623 11.2306L12.0785 11.2738C12.151 11.4706 12.05 11.6891 11.8527 11.7609L7.22321 13.4469C7.02819 13.5179 6.92645 13.7332 6.99582 13.9293C7.08061 14.1694 7.34422 14.2937 7.5824 14.2072L12.4793 12.424C12.4793 12.424 12.4839 12.4225 12.4863 12.4217C12.4886 12.4209 12.4901 12.4194 12.4924 12.4194L12.4994 12.4163C15.4893 11.2923 14.2645 10.061 15.5001 9.42031C17.5497 8.35732 20.1827 7.96208 22.3626 8.82281C23.7308 9.36319 24.7043 10.2324 25.1783 11.7184H25.1768Z" fill="black"/>
</svg>
