<svg width="36" height="36" viewBox="0 0 36 36" fill="none" xmlns="http://www.w3.org/2000/svg">
<path d="M18 24L24 18M24 18L18 12M24 18H2M12 8.49718V8.40039C12 6.16018 12 5.03924 12.436 4.18359C12.8195 3.43095 13.4309 2.81947 14.1836 2.43597C15.0392 2 16.1602 2 18.4004 2H27.6004C29.8406 2 30.9591 2 31.8148 2.43597C32.5674 2.81947 33.181 3.43095 33.5645 4.18359C34 5.0384 34 6.15799 34 8.39382V27.6072C34 29.843 34 30.961 33.5645 31.8158C33.181 32.5684 32.5674 33.181 31.8148 33.5645C30.96 34 29.842 34 27.6062 34H18.3938C16.158 34 15.0384 34 14.1836 33.5645C13.4309 33.181 12.8195 32.5678 12.436 31.8152C12 30.9595 12 29.8402 12 27.6V27.5" stroke="#FF5C28" stroke-width="3" stroke-linecap="round" stroke-linejoin="round"/>
</svg>
