<svg width="343" height="326" viewBox="0 0 343 326" fill="none" xmlns="http://www.w3.org/2000/svg">
<path d="M165.33 161.841L165.24 161.881C165.27 161.861 165.3 161.851 165.33 161.841Z" fill="#FF5C28" stroke="black" stroke-miterlimit="10"/>
<path d="M329.82 152.801C333.04 162.871 333.69 173.551 332.34 184.031C322.09 263.491 254.98 324.851 173.69 324.851C123.81 324.851 79.2704 301.741 49.9304 265.531C57.4304 263.711 75.2404 258.481 94.1904 246.351C89.6104 248.311 67.4604 255.851 42.6104 255.771C29.4904 255.731 15.6304 253.571 3.19043 247.351C14.3204 249.201 26.0704 249.501 37.9604 248.671C96.6704 244.621 159.04 213.511 168.19 209.351C186.19 199.351 181.19 231.351 241.19 216.351C264.19 209.351 287.19 191.351 281.19 166.351C275.19 141.351 249.19 137.351 217.97 146.001C186.75 154.661 181.69 173.991 173.69 181.711C144.2 207.071 94.2304 205.351 94.1904 205.351C74.8304 204.681 55.8904 202.231 39.9404 190.171C-4.70957 156.391 22.2804 93.7411 50.9404 58.9612C86.8504 15.3812 145.84 -6.44884 201.46 3.29115C236.31 9.39116 268.5 27.6212 292.11 53.9112C280.45 56.6012 259.32 62.6712 249.19 71.3512C266.25 66.4712 283.22 62.5512 298.65 61.6612C314.88 60.7312 329.39 63.1511 340.5 71.3512C327.92 69.2812 316.47 68.7012 304.56 69.6212C276.51 71.8012 245.98 82.3312 192.34 101.581C188.93 102.801 185.44 99.1311 183.13 97.1812C180.16 94.6812 177.08 92.8312 173.29 91.8512C158.75 88.0911 142.04 91.5111 127.96 95.6311C113.88 99.7512 99.1804 106.101 84.7904 111.331L75.5304 114.701C73.0004 115.621 71.6804 118.411 72.5804 120.961L73.0604 122.321C73.9704 124.891 76.8104 126.231 79.3704 125.301L138.72 103.721C141.26 102.801 144.07 104.101 145.01 106.641C145.95 109.191 144.64 112.031 142.08 112.961L82.5504 134.611C80.0204 135.531 78.7004 138.321 79.6004 140.861L79.9104 141.741C80.8204 144.321 83.6604 145.661 86.2204 144.721L145.83 123.041C148.37 122.111 151.19 123.421 152.12 125.961L152.48 126.931C153.42 129.481 152.11 132.311 149.55 133.241L89.7504 154.981C87.2204 155.901 85.9004 158.691 86.8004 161.231L87.2004 162.351C88.1104 164.931 90.9504 166.261 93.5104 165.331L153.39 143.561C155.93 142.641 158.75 143.941 159.68 146.481L159.89 147.041C160.83 149.591 159.52 152.421 156.96 153.351L96.9004 175.191C94.3704 176.111 93.0504 178.901 93.9504 181.441C95.0504 184.551 98.4704 186.161 101.56 185.041L165.09 161.941C165.09 161.941 165.15 161.921 165.18 161.911C165.21 161.901 165.23 161.881 165.26 161.881C165.26 161.881 165.35 161.851 165.35 161.841C204.14 147.281 188.25 131.331 204.28 123.031C230.87 109.261 265.03 104.141 293.31 115.291C311.06 122.291 323.69 133.551 329.84 152.801H329.82Z" fill="#FF5C28" stroke="black" stroke-miterlimit="10"/>
</svg>
