<svg width="28" height="28" viewBox="0 0 28 28" fill="none" xmlns="http://www.w3.org/2000/svg">
<path d="M14 18.875L18.875 14M18.875 14L14 9.125M18.875 14H1M9.125 6.27895V6.20032C9.125 4.38015 9.125 3.46938 9.47923 2.77417C9.79082 2.16264 10.2876 1.66582 10.8992 1.35423C11.5944 1 12.5051 1 14.3253 1H21.8003C23.6205 1 24.5293 1 25.2245 1.35423C25.836 1.66582 26.3345 2.16264 26.6461 2.77417C27 3.4687 27 4.37837 27 6.19498V21.8058C27 23.6224 27 24.5308 26.6461 25.2253C26.3345 25.8368 25.836 26.3345 25.2245 26.6461C24.53 27 23.6216 27 21.805 27H14.32C12.5034 27 11.5937 27 10.8992 26.6461C10.2876 26.3345 9.79082 25.8364 9.47923 25.2248C9.125 24.5296 9.125 23.6202 9.125 21.8V21.7188" stroke="black" stroke-width="2" stroke-linecap="round" stroke-linejoin="round"/>
</svg>
