<svg width="33" height="28" viewBox="0 0 33 28" fill="none" xmlns="http://www.w3.org/2000/svg">
<path d="M18.4369 6.59632V4.16724H19.4056C19.9408 4.16724 20.3744 3.74446 20.3744 3.22247V2.27771C20.3744 1.75573 19.9408 1.33295 19.4056 1.33295H13.5931C13.0579 1.33295 12.6244 1.75573 12.6244 2.27771V3.22247C12.6244 3.74446 13.0579 4.16724 13.5931 4.16724H14.5619V6.59632C7.99192 7.51569 2.93686 13.0113 2.93686 19.673H16.4994H30.0619C30.0619 13.0113 25.0068 7.51569 18.4369 6.59632ZM31.0313 22.8882H1.96875C1.43352 22.8882 1 23.311 1 23.833V25.7225C1 26.2445 1.43352 26.6673 1.96875 26.6673H31.0313C31.5665 26.6673 32 26.2445 32 25.7225V23.833C32 23.311 31.5665 22.8882 31.0313 22.8882Z" stroke="black" stroke-width="2" stroke-linejoin="round"/>
</svg>
