<svg width="33" height="32" viewBox="0 0 33 32" fill="none" xmlns="http://www.w3.org/2000/svg">
<path d="M31.9027 27.1761L25.7942 21.0687C25.5185 20.793 25.1448 20.6399 24.7526 20.6399H23.754C25.445 18.4774 26.4498 15.7576 26.4498 12.7988C26.4498 5.76017 20.7456 0.0570068 13.7059 0.0570068C6.66605 0.0570068 0.961914 5.76017 0.961914 12.7988C0.961914 19.8374 6.66605 25.5405 13.7059 25.5405C16.6651 25.5405 19.3855 24.5359 21.5483 22.8452V23.8437C21.5483 24.2357 21.7014 24.6094 21.9772 24.8851L28.0857 30.9925C28.6616 31.5684 29.5929 31.5684 30.1627 30.9925L31.8966 29.2589C32.4725 28.6831 32.4725 27.752 31.9027 27.1761ZM13.7059 20.6399C9.37414 20.6399 5.86343 17.1359 5.86343 12.7988C5.86343 8.46779 9.36801 4.95768 13.7059 4.95768C18.0376 4.95768 21.5483 8.46167 21.5483 12.7988C21.5483 17.1297 18.0437 20.6399 13.7059 20.6399Z" fill="#797575"/>
</svg>
