<svg width="36" height="40" viewBox="0 0 36 40" fill="none" xmlns="http://www.w3.org/2000/svg">
<path d="M20.9571 36.8593L31.0452 31.0035C32.1221 30.3784 32.6595 30.0657 33.0511 29.6285C33.3976 29.2416 33.6596 28.7859 33.8196 28.2907C34 27.7324 34 27.1085 34 25.8642V14.1354C34 12.8911 34 12.2672 33.8196 11.709C33.6596 11.2138 33.3976 10.7577 33.0511 10.3708C32.6612 9.93544 32.125 9.62419 31.0573 9.00447L20.9553 3.14055C19.8784 2.51544 19.3411 2.20352 18.7686 2.08118C18.2621 1.97294 17.7384 1.97294 17.2319 2.08118C16.6595 2.20352 16.1203 2.51544 15.0434 3.14055L4.95346 8.99747C3.87781 9.62185 3.34041 9.9338 2.94903 10.3708C2.60254 10.7577 2.34087 11.2138 2.18085 11.709C2 12.2686 2 12.894 2 14.1442V25.8559C2 27.1061 2 27.7311 2.18085 28.2907C2.34087 28.7859 2.60254 29.2416 2.94903 29.6285C3.34063 30.0658 3.87844 30.3784 4.95534 31.0035L15.0434 36.8593C16.1203 37.4844 16.6595 37.7965 17.2319 37.9188C17.7384 38.0271 18.2621 38.0271 18.7686 37.9188C19.3411 37.7965 19.8803 37.4844 20.9571 36.8593Z" stroke="#FF5C28" stroke-width="3" stroke-linecap="round" stroke-linejoin="round"/>
<path d="M12.4574 19.9998C12.4574 23.0775 14.9389 25.5724 18 25.5724C21.0611 25.5724 23.5426 23.0775 23.5426 19.9998C23.5426 16.9222 21.0611 14.4272 18 14.4272C14.9389 14.4272 12.4574 16.9222 12.4574 19.9998Z" stroke="#FF5C28" stroke-width="3" stroke-linecap="round" stroke-linejoin="round"/>
</svg>
