<svg width="28" height="31" viewBox="0 0 28 31" fill="none" xmlns="http://www.w3.org/2000/svg">
<path d="M16.4027 29.0811L24.5992 24.3639C25.4742 23.8604 25.9108 23.6085 26.229 23.2563C26.5105 22.9446 26.7234 22.5775 26.8534 22.1786C27 21.7289 27 21.2263 27 20.2239V10.7758C27 9.77336 27 9.27084 26.8534 8.8211C26.7234 8.42223 26.5105 8.05483 26.229 7.74316C25.9122 7.39244 25.4765 7.14171 24.6091 6.64249L16.4012 1.91878C15.5262 1.41522 15.0896 1.16395 14.6245 1.0654C14.213 0.978201 13.7875 0.978201 13.3759 1.0654C12.9108 1.16395 12.4727 1.41522 11.5978 1.91878L3.39968 6.63685C2.52572 7.13983 2.08908 7.39112 1.77109 7.74316C1.48956 8.05483 1.27695 8.42223 1.14694 8.8211C1 9.2719 1 9.77573 1 10.7829V20.2172C1 21.2244 1 21.7278 1.14694 22.1786C1.27695 22.5775 1.48956 22.9446 1.77109 23.2563C2.08927 23.6085 2.52623 23.8604 3.40122 24.3639L11.5978 29.0811C12.4727 29.5847 12.9108 29.8361 13.3759 29.9346C13.7875 30.0218 14.213 30.0218 14.6245 29.9346C15.0896 29.8361 15.5277 29.5847 16.4027 29.0811Z" stroke="black" stroke-width="2" stroke-linecap="round" stroke-linejoin="round"/>
<path d="M9.49662 15.4998C9.49662 17.9791 11.5129 19.9889 14 19.9889C16.4871 19.9889 18.5034 17.9791 18.5034 15.4998C18.5034 13.0206 16.4871 11.0108 14 11.0108C11.5129 11.0108 9.49662 13.0206 9.49662 15.4998Z" stroke="black" stroke-width="2" stroke-linecap="round" stroke-linejoin="round"/>
</svg>
