<svg width="31" height="34" viewBox="0 0 31 34" fill="none" xmlns="http://www.w3.org/2000/svg">
<path d="M27.6663 6.3871C29.5073 6.3871 30.9997 4.9573 30.9997 3.19355C30.9997 1.4298 29.5073 0 27.6663 0C25.8254 0 24.333 1.4298 24.333 3.19355C24.333 4.9573 25.8254 6.3871 27.6663 6.3871Z" fill="#FF5C28"/>
<path d="M17.3893 26.3799C17.5707 25.4839 16.8123 24.7352 15.8981 24.7352C14.9839 24.7352 14.2694 25.497 13.9674 26.3599C13.2899 28.2957 11.4389 29.6942 9.27672 29.6942C6.5454 29.6942 4.31069 27.4626 4.31069 24.7352C4.31069 22.5745 5.7132 20.7251 7.65405 20.0498C8.51626 19.7498 9.27672 19.0362 9.27672 18.1233C9.27672 17.2104 8.52922 16.4532 7.63426 16.6333C3.85142 17.3948 1 20.7345 1 24.7352C1 29.2974 4.70797 33.0001 9.27672 33.0001C13.2816 33.0001 16.625 30.1551 17.3893 26.3799ZM24.356 17.1315C22.9148 17.1315 21.9562 15.6413 22.5538 14.3298L24.0415 11.0651C25.0512 8.86667 23.429 6.38721 20.9791 6.38721H12.3713C11.0305 6.38721 9.82206 7.16411 9.2758 8.37078L8.55525 10.421C8.23444 11.3339 8.75413 12.3274 9.6869 12.5845C10.5125 12.8121 11.3764 12.3782 11.6869 11.5801L12.0135 10.7406C12.2591 10.1091 12.8673 9.69316 13.5449 9.69316C14.7355 9.69316 15.5309 10.9199 15.0451 12.0069L13.05 16.4704C12.0568 18.6688 13.6956 21.264 16.1124 21.264H22.356C23.4605 21.264 24.356 22.1594 24.356 23.264V29.0497C24.356 29.9639 25.0971 30.705 26.0113 30.705C26.9255 30.705 27.6667 29.9639 27.6667 29.0497V20.4375C27.6667 18.6192 26.1769 17.1315 24.356 17.1315Z" fill="#FF5C28" stroke="#FF5C28"/>
</svg>
