<svg width="28" height="31" viewBox="0 0 28 31" fill="none" xmlns="http://www.w3.org/2000/svg">
<path d="M25 1C26.1357 1 27 1.88285 27 2.90332C26.9999 3.92375 26.1357 4.80664 25 4.80664C23.8643 4.80664 23.0001 3.92375 23 2.90332C23 1.88285 23.8643 1 25 1Z" stroke="black" stroke-width="2"/>
<path d="M15.7533 23.9673C15.9134 23.1602 15.2311 22.4867 14.4083 22.4867V22.4867C13.5855 22.4867 12.9422 23.1716 12.6754 23.9499C12.0695 25.7169 10.4001 26.9948 8.44904 26.9948C5.99086 26.9948 3.97962 24.9661 3.97962 22.4867C3.97962 20.5275 5.23532 18.8498 6.97501 18.232C7.75707 17.9542 8.44904 17.3058 8.44904 16.4758V16.4758C8.44904 15.6459 7.76929 14.9572 6.95635 15.1242C3.55901 15.8221 1 18.8548 1 22.4867C1 26.6341 4.33717 30.0002 8.44904 30.0002C12.0585 30.0002 15.071 27.4065 15.7533 23.9673ZM22.0204 15.5742V15.5742C20.7208 15.5742 19.8544 14.2329 20.3889 13.0483L21.7373 10.0593C22.6461 8.0607 21.1861 5.80664 18.9812 5.80664H11.2342C10.0274 5.80664 8.93986 6.51291 8.44822 7.60989L7.7925 9.49452C7.50716 10.3146 7.97338 11.2053 8.80988 11.4382V11.4382C9.55646 11.6461 10.3388 11.2528 10.6173 10.5296L10.9134 9.76104C11.1336 9.18926 11.6831 8.81205 12.2958 8.81205V8.81205C13.3668 8.81205 14.0839 9.91355 13.6505 10.893L11.845 14.9731C10.9511 16.9717 12.426 19.331 14.6011 19.331H20.0204C21.125 19.331 22.0204 20.2264 22.0204 21.331V26.4239C22.0204 27.2467 22.6874 27.9137 23.5102 27.9137V27.9137C24.333 27.9137 25 27.2467 25 26.4239V18.5796C25 16.9267 23.6592 15.5742 22.0204 15.5742Z" stroke="black" stroke-width="2"/>
</svg>
